/* XPM */
static char * titlebar_xpm[] = {
"18 18 2 1",
" 	c #2C2B29",
".	c #1E1E1D",
"                  ",
"                  ",
"                  ",
"                  ",
"                  ",
"                  ",
"                  ",
"                  ",
"                  ",
"                  ",
"                  ",
"                  ",
"                  ",
"                  ",
"                  ",
"                  ",
"                  ",
".................."};
