/* XPM */
static char * stuck_unfocus_xpm[] = {
"18 18 4 1",
" 	c None",
".	c #2C2B29",
"+	c #A0A0A0",
"@	c #1E1E1D",
"..................",
"..................",
"..................",
"..................",
"..................",
"..................",
"..................",
"...........+++....",
"...........+++....",
"...........+++....",
"..................",
"..................",
"..................",
"..................",
"..................",
"..................",
"..................",
"@@@@@@@@@@@@@@@@@@"};
