/* XPM */
static char * close_pressed_xpm[] = {
"18 18 4 1",
" 	c None",
".	c #2C2B29",
"+	c #63624D",
"@	c #1E1E1D",
"..................",
"..................",
"..................",
"..................",
"..................",
"..................",
"..................",
"....+.+...........",
".....+............",
"....+.+...........",
"..................",
"..................",
"..................",
"..................",
"..................",
"..................",
"..................",
"@@@@@@@@@@@@@@@@@@"};
