/* XPM */
static char * shaded_xpm[] = {
"18 18 4 1",
" 	c None",
".	c #2C2B29",
"+	c #E4DFDB",
"@	c #1E1E1D",
"..................",
"..................",
"..................",
"..................",
"..................",
"..................",
"..................",
"..................",
"...........+.+....",
"............+.....",
"..................",
"..................",
"..................",
"..................",
"..................",
"..................",
"..................",
"@@@@@@@@@@@@@@@@@@"};
